<svg width="603" height="444" viewBox="0 0 603 444" fill="none" xmlns="http://www.w3.org/2000/svg">
<g clip-path="url(#clip0)">
<path opacity="0.1" d="M498.91 433.664C509.244 433.664 517.621 432.426 517.621 430.899C517.621 429.372 509.244 428.134 498.91 428.134C488.576 428.134 480.199 429.372 480.199 430.899C480.199 432.426 488.576 433.664 498.91 433.664Z" fill="#3A924D"/>
<path opacity="0.1" d="M463.859 407.262C471.398 407.262 477.51 406.642 477.51 405.877C477.51 405.112 471.398 404.492 463.859 404.492C456.32 404.492 450.208 405.112 450.208 405.877C450.208 406.642 456.32 407.262 463.859 407.262Z" fill="#3A924D"/>
<path opacity="0.1" d="M384.547 395.853C391.39 395.853 396.937 395.233 396.937 394.468C396.937 393.704 391.39 393.083 384.547 393.083C377.705 393.083 372.158 393.704 372.158 394.468C372.158 395.233 377.705 395.853 384.547 395.853Z" fill="#3A924D"/>
<path opacity="0.1" d="M502.714 380.295C509.557 380.295 515.104 379.675 515.104 378.91C515.104 378.145 509.557 377.525 502.714 377.525C495.872 377.525 490.325 378.145 490.325 378.91C490.325 379.675 495.872 380.295 502.714 380.295Z" fill="#3A924D"/>
<path opacity="0.1" d="M361.508 433.092C371.842 433.092 380.22 431.855 380.22 430.328C380.22 428.801 371.842 427.563 361.508 427.563C351.175 427.563 342.797 428.801 342.797 430.328C342.797 431.855 351.175 433.092 361.508 433.092Z" fill="#3A924D"/>
<path opacity="0.1" d="M108.693 339.586C168.723 339.586 217.387 336.572 217.387 332.854C217.387 329.137 168.723 326.123 108.693 326.123C48.6637 326.123 0 329.137 0 332.854C0 336.572 48.6637 339.586 108.693 339.586Z" fill="#3A924D"/>
<path opacity="0.1" d="M435 337.888C459.963 337.888 480.199 334.874 480.199 331.157C480.199 327.439 459.963 324.426 435 324.426C410.038 324.426 389.802 327.439 389.802 331.157C389.802 334.874 410.038 337.888 435 337.888Z" fill="#3A924D"/>
<path opacity="0.1" d="M8.68701 209.648C18.0425 245.825 37.8476 277.099 69.1477 292.258C134.195 323.758 280.892 307.509 390.378 288.858C447.001 279.216 496.781 252.61 532.942 215.123L8.68701 209.648Z" fill="#3A924D"/>
<path opacity="0.1" d="M582.824 39.3568H522.751C519.895 39.3568 517.562 37.2443 517.562 34.6575C517.562 32.0707 519.895 29.9636 522.751 29.9636H533.136C530.28 29.9636 527.941 27.8457 527.941 25.2643C527.941 22.6829 530.28 20.5703 533.136 20.5703H525.715C522.865 20.5703 520.526 18.4524 520.526 15.871C520.526 13.2896 522.865 11.1717 525.715 11.1717H557.096C550.139 8.24537 542.007 6.16516 532.64 5.07656C447.12 -4.88257 416.596 1.71373 405.829 8.47171C392.406 16.9901 377.498 22.9028 361.886 25.9002C309.137 35.7407 210.489 47.5861 121.078 22.1278C76.6388 9.46331 43.6087 30.8636 23.8145 66.6366H593.257C592.508 56.2356 590.288 46.6376 586.198 38.2359C585.23 38.9759 584.042 39.3705 582.824 39.3568Z" fill="#3A924D"/>
<path opacity="0.1" d="M3.58947 134.157C1.28131 155.197 2.06749 176.462 5.92297 197.275L533.347 214.73C547.866 199.671 560.202 182.65 569.993 164.164L3.58947 134.157ZM212.192 179.162H201.813C204.669 179.162 207.002 181.274 207.002 183.861C207.002 186.448 204.669 188.555 201.813 188.555H141.74C138.884 188.555 136.55 186.443 136.55 183.861C136.55 181.28 138.884 179.162 141.74 179.162H152.125C149.269 179.162 146.93 177.049 146.93 174.462C146.93 171.876 149.269 169.769 152.125 169.769H144.704C141.853 169.769 139.514 167.656 139.514 165.069C139.514 162.482 141.853 160.375 144.704 160.375H204.777C207.633 160.375 209.972 162.488 209.972 165.069C209.972 167.651 207.633 169.769 204.777 169.769H212.192C215.043 169.769 217.382 171.881 217.382 174.462C217.382 177.044 215.048 179.162 212.192 179.162Z" fill="#3A924D"/>
<path opacity="0.1" d="M593.279 66.9384L17.4553 79.6137C10.4495 95.8943 5.78785 114.32 3.66992 133.413H583.191C586.962 122.247 589.76 110.776 591.554 99.1277C593.279 87.8968 593.974 77.0323 593.279 66.9384ZM120.576 108.462H110.197C113.053 108.462 115.387 110.574 115.387 113.161C115.387 115.748 113.053 117.855 110.197 117.855H50.1243C47.268 117.855 44.9345 115.742 44.9345 113.161C44.9345 110.58 47.268 108.462 50.1243 108.462H60.5091C57.6529 108.462 55.314 106.349 55.314 103.768C55.314 101.186 57.6529 99.0685 60.5091 99.0685H53.0883C50.2374 99.0685 47.8985 96.9559 47.8985 94.3691C47.8985 91.7823 50.2374 89.6752 53.0883 89.6752H113.161C116.017 89.6752 118.356 91.7877 118.356 94.3691C118.356 96.9505 116.017 99.0685 113.161 99.0685H120.576C123.427 99.0685 125.766 101.181 125.766 103.768C125.766 106.355 123.433 108.462 120.576 108.462Z" fill="#3A924D"/>
<path d="M172.329 327.794L174.479 332.38V298.299H172.329V327.794Z" fill="#B77B7F"/>
<path d="M33.4613 327.794L31.3164 332.38V298.299H33.4613V327.794Z" fill="#B77B7F"/>
<path opacity="0.1" d="M172.329 327.794L174.479 332.38V298.299H172.329V327.794Z" fill="black"/>
<path opacity="0.1" d="M33.4613 327.794L31.3164 332.38V298.299H33.4613V327.794Z" fill="black"/>
<path d="M48.1088 235.705H42.1538V277.6H48.1088V235.705Z" fill="#B77B7F"/>
<path d="M167.947 235.705H161.992V277.6H167.947V235.705Z" fill="#B77B7F"/>
<path opacity="0.1" d="M48.1088 235.705H42.1538V240.587H48.1088V235.705Z" fill="black"/>
<path opacity="0.1" d="M167.947 235.705H161.992V240.587H167.947V235.705Z" fill="black"/>
<path d="M176.429 233.948H32.9761V240.199H176.429V233.948Z" fill="#DDA2A6"/>
<path opacity="0.1" d="M48.1088 242.834H42.1538V249.086H48.1088V242.834Z" fill="black"/>
<path opacity="0.1" d="M167.947 242.834H161.992V249.086H167.947V242.834Z" fill="black"/>
<path d="M176.429 242.441H32.9761V248.692H176.429V242.441Z" fill="#DDA2A6"/>
<path opacity="0.1" d="M48.1088 251.328H42.1538V257.579H48.1088V251.328Z" fill="black"/>
<path opacity="0.1" d="M167.947 251.328H161.992V257.579H167.947V251.328Z" fill="black"/>
<path d="M176.429 250.94H32.9761V257.191H176.429V250.94Z" fill="#DDA2A6"/>
<path opacity="0.1" d="M48.1088 259.826H42.1538V266.078H48.1088V259.826Z" fill="black"/>
<path opacity="0.1" d="M167.947 259.826H161.992V266.078H167.947V259.826Z" fill="black"/>
<path d="M176.429 259.433H32.9761V265.684H176.429V259.433Z" fill="#DDA2A6"/>
<path opacity="0.1" d="M48.1088 268.32H42.1538V274.571H48.1088V268.32Z" fill="black"/>
<path opacity="0.1" d="M167.947 268.32H161.992V274.571H167.947V268.32Z" fill="black"/>
<path d="M176.429 267.932H32.9761V274.183H176.429V267.932Z" fill="#DDA2A6"/>
<g opacity="0.1">
<path opacity="0.1" d="M45.1337 238.324C45.61 238.324 45.996 237.938 45.996 237.461C45.996 236.985 45.61 236.599 45.1337 236.599C44.6575 236.599 44.2715 236.985 44.2715 237.461C44.2715 237.938 44.6575 238.324 45.1337 238.324Z" fill="black"/>
<path opacity="0.1" d="M45.1337 246.817C45.61 246.817 45.996 246.431 45.996 245.955C45.996 245.478 45.61 245.092 45.1337 245.092C44.6575 245.092 44.2715 245.478 44.2715 245.955C44.2715 246.431 44.6575 246.817 45.1337 246.817Z" fill="black"/>
<path opacity="0.1" d="M45.1337 255.316C45.61 255.316 45.996 254.93 45.996 254.453C45.996 253.977 45.61 253.591 45.1337 253.591C44.6575 253.591 44.2715 253.977 44.2715 254.453C44.2715 254.93 44.6575 255.316 45.1337 255.316Z" fill="black"/>
<path opacity="0.1" d="M45.1337 263.814C45.61 263.814 45.996 263.428 45.996 262.952C45.996 262.476 45.61 262.09 45.1337 262.09C44.6575 262.09 44.2715 262.476 44.2715 262.952C44.2715 263.428 44.6575 263.814 45.1337 263.814Z" fill="black"/>
<path opacity="0.1" d="M45.1337 272.308C45.61 272.308 45.996 271.922 45.996 271.445C45.996 270.969 45.61 270.583 45.1337 270.583C44.6575 270.583 44.2715 270.969 44.2715 271.445C44.2715 271.922 44.6575 272.308 45.1337 272.308Z" fill="black"/>
<path opacity="0.1" d="M164.972 238.324C165.448 238.324 165.834 237.938 165.834 237.461C165.834 236.985 165.448 236.599 164.972 236.599C164.496 236.599 164.11 236.985 164.11 237.461C164.11 237.938 164.496 238.324 164.972 238.324Z" fill="black"/>
<path opacity="0.1" d="M164.972 246.817C165.448 246.817 165.834 246.431 165.834 245.955C165.834 245.478 165.448 245.092 164.972 245.092C164.496 245.092 164.11 245.478 164.11 245.955C164.11 246.431 164.496 246.817 164.972 246.817Z" fill="black"/>
<path opacity="0.1" d="M164.972 255.316C165.448 255.316 165.834 254.93 165.834 254.453C165.834 253.977 165.448 253.591 164.972 253.591C164.496 253.591 164.11 253.977 164.11 254.453C164.11 254.93 164.496 255.316 164.972 255.316Z" fill="black"/>
<path opacity="0.1" d="M164.972 263.814C165.448 263.814 165.834 263.428 165.834 262.952C165.834 262.476 165.448 262.09 164.972 262.09C164.496 262.09 164.11 262.476 164.11 262.952C164.11 263.428 164.496 263.814 164.972 263.814Z" fill="black"/>
<path opacity="0.1" d="M164.972 272.308C165.448 272.308 165.834 271.922 165.834 271.445C165.834 270.969 165.448 270.583 164.972 270.583C164.496 270.583 164.11 270.969 164.11 271.445C164.11 271.922 164.496 272.308 164.972 272.308Z" fill="black"/>
</g>
<path d="M45.1342 237.936C45.6104 237.936 45.9965 237.55 45.9965 237.073C45.9965 236.597 45.6104 236.211 45.1342 236.211C44.658 236.211 44.272 236.597 44.272 237.073C44.272 237.55 44.658 237.936 45.1342 237.936Z" fill="#918C9E"/>
<path d="M45.1342 246.429C45.6104 246.429 45.9965 246.043 45.9965 245.567C45.9965 245.09 45.6104 244.704 45.1342 244.704C44.658 244.704 44.272 245.09 44.272 245.567C44.272 246.043 44.658 246.429 45.1342 246.429Z" fill="#918C9E"/>
<path d="M45.1342 254.928C45.6104 254.928 45.9965 254.542 45.9965 254.065C45.9965 253.589 45.6104 253.203 45.1342 253.203C44.658 253.203 44.272 253.589 44.272 254.065C44.272 254.542 44.658 254.928 45.1342 254.928Z" fill="#918C9E"/>
<path d="M45.1342 263.421C45.6104 263.421 45.9965 263.035 45.9965 262.559C45.9965 262.082 45.6104 261.696 45.1342 261.696C44.658 261.696 44.272 262.082 44.272 262.559C44.272 263.035 44.658 263.421 45.1342 263.421Z" fill="#918C9E"/>
<path d="M45.1342 271.92C45.6104 271.92 45.9965 271.533 45.9965 271.057C45.9965 270.581 45.6104 270.195 45.1342 270.195C44.658 270.195 44.272 270.581 44.272 271.057C44.272 271.533 44.658 271.92 45.1342 271.92Z" fill="#918C9E"/>
<path d="M164.972 237.936C165.448 237.936 165.834 237.55 165.834 237.073C165.834 236.597 165.448 236.211 164.972 236.211C164.496 236.211 164.11 236.597 164.11 237.073C164.11 237.55 164.496 237.936 164.972 237.936Z" fill="#918C9E"/>
<path d="M164.972 246.429C165.448 246.429 165.834 246.043 165.834 245.567C165.834 245.09 165.448 244.704 164.972 244.704C164.496 244.704 164.11 245.09 164.11 245.567C164.11 246.043 164.496 246.429 164.972 246.429Z" fill="#918C9E"/>
<path d="M164.972 254.928C165.448 254.928 165.834 254.542 165.834 254.065C165.834 253.589 165.448 253.203 164.972 253.203C164.496 253.203 164.11 253.589 164.11 254.065C164.11 254.542 164.496 254.928 164.972 254.928Z" fill="#918C9E"/>
<path d="M164.972 263.421C165.448 263.421 165.834 263.035 165.834 262.559C165.834 262.082 165.448 261.696 164.972 261.696C164.496 261.696 164.11 262.082 164.11 262.559C164.11 263.035 164.496 263.421 164.972 263.421Z" fill="#918C9E"/>
<path d="M164.972 271.92C165.448 271.92 165.834 271.533 165.834 271.057C165.834 270.581 165.448 270.195 164.972 270.195C164.496 270.195 164.11 270.581 164.11 271.057C164.11 271.533 164.496 271.92 164.972 271.92Z" fill="#918C9E"/>
<path d="M179.749 280.235H29.5542L32.9763 276.037H176.43L179.749 280.235Z" fill="#DDA2A6"/>
<path opacity="0.1" d="M179.749 280.235H29.5542L32.9763 276.037H176.43L179.749 280.235Z" fill="black"/>
<path d="M179.749 280.041H29.5542L32.9763 275.843H176.43L179.749 280.041Z" fill="#DDA2A6"/>
<path d="M185.025 286.777L23.8901 286.384L29.3601 280.623H180.337L185.025 286.777Z" fill="#DDA2A6"/>
<path opacity="0.1" d="M185.025 286.777L23.8901 286.384L29.3601 280.623H180.337L185.025 286.777Z" fill="black"/>
<path d="M185.025 286.583L23.8901 286.19L29.3601 280.429H180.337L185.025 286.583Z" fill="#DDA2A6"/>
<path d="M190.102 292.732H18.1289L23.4049 286.777L185.413 286.971L190.102 292.732Z" fill="#DDA2A6"/>
<path d="M44.266 298.299V310.603L42.1535 314.709L41.4583 300.056L41.3721 298.299H44.266Z" fill="#B77B7F"/>
<path d="M164.908 298.299L164.821 300.056L164.126 314.709L162.008 310.603V298.299H164.908Z" fill="#B77B7F"/>
<path opacity="0.1" d="M44.266 298.299V310.603L42.1535 314.709L41.4583 300.056L41.3721 298.299H44.266Z" fill="black"/>
<path opacity="0.1" d="M164.908 298.299L164.821 300.056L164.126 314.709L162.008 310.603V298.299H164.908Z" fill="black"/>
<path d="M42.1536 297.324H36.6836V314.704H42.1536V297.324Z" fill="#B77B7F"/>
<path d="M169.596 297.324H164.126V314.704H169.596V297.324Z" fill="#B77B7F"/>
<path opacity="0.1" d="M42.1536 298.299H44.2661V300.056H36.6836V297.324H42.1536V298.299Z" fill="black"/>
<path opacity="0.1" d="M169.596 297.324V300.056H162.008V298.299H164.126V297.324H169.596Z" fill="black"/>
<path d="M176.43 295.373H29.5542V299.668H176.43V295.373Z" fill="#B77B7F"/>
<path d="M31.3163 294.592H25.0649V332.386H31.3163V294.592Z" fill="#B77B7F"/>
<path d="M174.473 332.38H180.725V294.586H174.473V332.38Z" fill="#B77B7F"/>
<path opacity="0.1" d="M176.43 295.373H29.5542V295.761H176.43V295.373Z" fill="black"/>
<path d="M190.102 292.732H18.1289V295.368H190.102V292.732Z" fill="#DDA2A6"/>
<path opacity="0.1" d="M190.102 292.732H18.1289V295.368H190.102V292.732Z" fill="white"/>
<path opacity="0.1" d="M27.8188 298.58C28.295 298.58 28.6811 298.194 28.6811 297.717C28.6811 297.241 28.295 296.855 27.8188 296.855C27.3426 296.855 26.9565 297.241 26.9565 297.717C26.9565 298.194 27.3426 298.58 27.8188 298.58Z" fill="black"/>
<path d="M27.8188 298.186C28.295 298.186 28.6811 297.8 28.6811 297.324C28.6811 296.848 28.295 296.462 27.8188 296.462C27.3426 296.462 26.9565 296.848 26.9565 297.324C26.9565 297.8 27.3426 298.186 27.8188 298.186Z" fill="#918C9E"/>
<path opacity="0.1" d="M178.111 298.461C178.587 298.461 178.973 298.075 178.973 297.599C178.973 297.123 178.587 296.737 178.111 296.737C177.635 296.737 177.249 297.123 177.249 297.599C177.249 298.075 177.635 298.461 178.111 298.461Z" fill="black"/>
<path d="M178.111 298.068C178.587 298.068 178.973 297.682 178.973 297.205C178.973 296.729 178.587 296.343 178.111 296.343C177.635 296.343 177.249 296.729 177.249 297.205C177.249 297.682 177.635 298.068 178.111 298.068Z" fill="#918C9E"/>
<path opacity="0.1" d="M499.066 327.773C505.165 327.773 510.109 327.095 510.109 326.258C510.109 325.422 505.165 324.744 499.066 324.744C492.968 324.744 488.024 325.422 488.024 326.258C488.024 327.095 492.968 327.773 499.066 327.773Z" fill="#3A924D"/>
<path opacity="0.1" d="M541.36 332.062C547.459 332.062 552.403 331.384 552.403 330.548C552.403 329.712 547.459 329.034 541.36 329.034C535.262 329.034 530.318 329.712 530.318 330.548C530.318 331.384 535.262 332.062 541.36 332.062Z" fill="#3A924D"/>
<path opacity="0.1" d="M591.182 326.258C597.281 326.258 602.225 325.58 602.225 324.744C602.225 323.908 597.281 323.23 591.182 323.23C585.084 323.23 580.14 323.908 580.14 324.744C580.14 325.58 585.084 326.258 591.182 326.258Z" fill="#3A924D"/>
<path opacity="0.1" d="M524.433 343.838C528.77 343.838 532.285 343.355 532.285 342.76C532.285 342.164 528.77 341.682 524.433 341.682C520.097 341.682 516.581 342.164 516.581 342.76C516.581 343.355 520.097 343.838 524.433 343.838Z" fill="#3A924D"/>
<path opacity="0.1" d="M568.333 342.76C572.669 342.76 576.185 342.277 576.185 341.682C576.185 341.087 572.669 340.604 568.333 340.604C563.996 340.604 560.481 341.087 560.481 341.682C560.481 342.277 563.996 342.76 568.333 342.76Z" fill="#3A924D"/>
<path d="M541.597 330.208C541.597 330.208 526.114 279.443 544.022 259.104C557.42 243.896 572.628 245.718 579.44 247.598C581.2 248.066 582.839 248.911 584.241 250.074C585.643 251.237 586.776 252.691 587.561 254.335C589.943 259.476 589.512 267.808 572.703 277.546C544.561 293.837 542.81 316.191 542.81 316.191L541.597 330.208Z" fill="#3A924D"/>
<path d="M577.036 254.798C577.036 254.798 531.385 269.069 541.619 330.208" stroke="#565987" stroke-width="0.538913" stroke-miterlimit="10"/>
<path d="M550.354 259.913C550.354 259.913 556.638 264.148 554.666 270.518" stroke="#565987" stroke-width="0.538913" stroke-miterlimit="10"/>
<path d="M572.434 263.685C572.434 263.685 568.591 259.778 563.919 261.933" stroke="#565987" stroke-width="0.538913" stroke-miterlimit="10"/>
<path d="M554.402 283.345C554.402 283.345 547.655 279.922 545.909 284.212" stroke="#565987" stroke-width="0.538913" stroke-miterlimit="10"/>
<path d="M537.695 290.48C537.695 290.48 542.761 290.081 542.853 292.501" stroke="#565987" stroke-width="0.538913" stroke-miterlimit="10"/>
<path d="M540.972 330.613C540.972 330.613 559.112 293.713 564.092 294.505C566.457 294.888 567.551 297.2 568.042 299.555C568.652 302.579 568.308 305.719 567.056 308.539C564.48 314.456 557.571 325.671 540.972 330.613Z" fill="#3A924D"/>
<path d="M563.956 301.522C563.956 301.522 544.922 329.131 541.241 330.343" stroke="#565987" stroke-width="0.538913" stroke-miterlimit="10"/>
<path d="M565.708 305.833H561.262" stroke="#565987" stroke-width="0.538913" stroke-miterlimit="10"/>
<path d="M560.384 315.933L553.421 316.229" stroke="#565987" stroke-width="0.538913" stroke-miterlimit="10"/>
<path d="M556.148 307.854L556.902 311.481" stroke="#565987" stroke-width="0.538913" stroke-miterlimit="10"/>
<path d="M548.743 318.897L548.872 322.195" stroke="#565987" stroke-width="0.538913" stroke-miterlimit="10"/>
<path d="M541.511 330.613C541.511 330.613 523.377 293.713 518.392 294.505C516.026 294.888 514.938 297.2 514.442 299.555C513.831 302.579 514.176 305.719 515.428 308.539C518.004 314.456 524.918 325.671 541.511 330.613Z" fill="#3A924D"/>
<path d="M518.526 301.522C518.526 301.522 537.566 329.131 541.242 330.343" stroke="#565987" stroke-width="0.538913" stroke-miterlimit="10"/>
<path d="M516.775 305.833H521.221" stroke="#565987" stroke-width="0.538913" stroke-miterlimit="10"/>
<path d="M522.099 315.933L529.062 316.229" stroke="#565987" stroke-width="0.538913" stroke-miterlimit="10"/>
<path d="M526.335 307.854L525.581 311.481" stroke="#565987" stroke-width="0.538913" stroke-miterlimit="10"/>
<path d="M533.746 318.897L533.611 322.195" stroke="#565987" stroke-width="0.538913" stroke-miterlimit="10"/>
<path d="M572.655 339.23C573.148 338.827 573.507 338.284 573.684 337.672C573.764 337.365 573.736 337.04 573.606 336.751C573.476 336.462 573.25 336.226 572.967 336.083C572.304 335.829 571.593 336.287 571.06 336.751C570.526 337.214 569.906 337.748 569.206 337.645C569.567 337.318 569.838 336.903 569.991 336.44C570.144 335.977 570.174 335.483 570.079 335.005C570.048 334.805 569.962 334.619 569.831 334.466C569.464 334.072 568.802 334.24 568.36 334.547C566.959 335.533 566.565 337.435 566.56 339.149C566.492 338.518 566.492 337.883 566.56 337.252C566.587 336.936 566.537 336.618 566.413 336.325C566.289 336.033 566.095 335.776 565.848 335.576C565.517 335.4 565.146 335.313 564.77 335.323C564.458 335.277 564.14 335.299 563.836 335.385C563.532 335.471 563.25 335.621 563.008 335.824C562.469 336.395 562.615 337.354 563.078 337.98C563.597 338.568 564.213 339.062 564.9 339.44C565.422 339.75 565.868 340.173 566.204 340.68C566.242 340.751 566.274 340.825 566.301 340.9H570.246C571.119 340.453 571.93 339.891 572.655 339.23Z" fill="#3A924D"/>
<path d="M503.545 324.394C504.038 323.991 504.397 323.448 504.574 322.836C504.654 322.529 504.626 322.204 504.495 321.916C504.363 321.627 504.136 321.393 503.852 321.252C503.189 320.998 502.483 321.456 501.944 321.92C501.405 322.383 500.796 322.912 500.09 322.815C500.452 322.488 500.723 322.073 500.876 321.61C501.029 321.147 501.059 320.652 500.963 320.174C500.934 319.975 500.85 319.788 500.721 319.635C500.354 319.242 499.686 319.414 499.25 319.721C497.848 320.707 497.455 322.61 497.45 324.318C497.373 323.69 497.364 323.056 497.423 322.426C497.45 322.11 497.399 321.792 497.275 321.5C497.151 321.208 496.958 320.951 496.711 320.75C496.381 320.57 496.009 320.483 495.634 320.497C495.321 320.451 495.003 320.472 494.7 320.557C494.396 320.642 494.114 320.791 493.871 320.993C493.643 321.309 493.525 321.693 493.538 322.083C493.551 322.473 493.693 322.848 493.941 323.149C494.46 323.735 495.076 324.228 495.763 324.604C496.284 324.917 496.73 325.342 497.067 325.849C497.105 325.919 497.136 325.993 497.159 326.07H501.109C501.993 325.624 502.813 325.06 503.545 324.394Z" fill="#3A924D"/>
<path d="M526.578 339.23C527.07 338.826 527.428 338.283 527.607 337.672C527.687 337.365 527.659 337.039 527.528 336.749C527.396 336.46 527.169 336.224 526.885 336.083C526.222 335.829 525.516 336.287 524.977 336.751C524.438 337.214 523.829 337.748 523.123 337.645C523.486 337.319 523.757 336.904 523.91 336.441C524.063 335.978 524.093 335.483 523.996 335.005C523.971 334.805 523.886 334.617 523.754 334.466C523.387 334.072 522.719 334.24 522.283 334.547C520.881 335.533 520.488 337.435 520.483 339.149C520.415 338.518 520.415 337.883 520.483 337.252C520.509 336.936 520.458 336.618 520.334 336.326C520.21 336.034 520.017 335.777 519.771 335.576C519.439 335.401 519.068 335.314 518.693 335.323C518.381 335.277 518.062 335.299 517.759 335.385C517.455 335.471 517.173 335.621 516.931 335.824C516.392 336.395 516.538 337.354 517.001 337.98C517.52 338.568 518.136 339.062 518.823 339.44C519.345 339.75 519.791 340.173 520.127 340.68C520.165 340.75 520.192 340.825 520.224 340.9H524.169C525.042 340.453 525.852 339.891 526.578 339.23Z" fill="#3A924D"/>
<path d="M591.899 309.191C591.899 309.191 593.381 311.125 591.215 314.041C589.049 316.957 587.27 319.43 587.981 321.246C587.981 321.246 591.242 315.825 593.91 315.749C596.577 315.674 594.82 312.451 591.899 309.191Z" fill="#3A924D"/>
<path opacity="0.1" d="M591.9 309.191C592.028 309.377 592.13 309.58 592.201 309.794C594.794 312.839 596.173 315.679 593.683 315.755C591.361 315.819 588.58 319.969 587.912 321.015C587.933 321.095 587.96 321.175 587.992 321.252C587.992 321.252 591.253 315.83 593.92 315.755C596.588 315.679 594.82 312.451 591.9 309.191Z" fill="black"/>
<path d="M594.648 311.654C594.648 312.338 594.573 312.888 594.481 312.888C594.389 312.888 594.309 312.349 594.309 311.654C594.309 310.958 594.406 311.293 594.497 311.293C594.589 311.293 594.648 310.975 594.648 311.654Z" fill="#FFD037"/>
<path d="M595.591 312.467C594.998 312.796 594.475 313.006 594.427 312.909C594.378 312.812 594.831 312.494 595.429 312.171C596.027 311.848 595.79 312.079 595.839 312.171C595.887 312.263 596.189 312.144 595.591 312.467Z" fill="#FFD037"/>
<path d="M584.085 309.191C584.085 309.191 582.603 311.125 584.77 314.041C586.936 316.957 588.714 319.43 588.003 321.246C588.003 321.246 584.77 315.825 582.075 315.749C579.38 315.674 581.164 312.451 584.085 309.191Z" fill="#3A924D"/>
<path opacity="0.1" d="M584.085 309.191C583.956 309.377 583.855 309.58 583.783 309.794C581.191 312.839 579.812 315.679 582.301 315.755C584.624 315.819 587.405 319.969 588.073 321.015C588.052 321.095 588.025 321.175 587.992 321.252C587.992 321.252 584.759 315.83 582.064 315.755C579.37 315.679 581.164 312.451 584.085 309.191Z" fill="black"/>
<path d="M581.348 311.654C581.348 312.338 581.423 312.888 581.515 312.888C581.606 312.888 581.687 312.349 581.687 311.654C581.687 310.958 581.59 311.293 581.499 311.293C581.407 311.293 581.348 310.975 581.348 311.654Z" fill="#FFD037"/>
<path d="M580.388 312.467C580.986 312.796 581.509 313.006 581.552 312.909C581.595 312.812 581.154 312.494 580.555 312.171C579.957 311.848 580.194 312.079 580.146 312.171C580.097 312.263 579.79 312.144 580.388 312.467Z" fill="#FFD037"/>
<path d="M581.806 320.998C581.806 320.998 585.945 320.874 587.195 319.985C588.445 319.096 593.559 318.04 593.867 319.446C594.174 320.853 600.08 326.528 595.413 326.565C590.746 326.603 584.56 325.838 583.315 325.078C582.07 324.318 581.806 320.998 581.806 320.998Z" fill="#A8A8A8"/>
<path opacity="0.2" d="M595.489 326.086C590.822 326.123 584.64 325.358 583.395 324.598C582.447 324.022 582.07 321.952 581.946 320.993H581.806C581.806 320.993 582.07 324.329 583.309 325.089C584.549 325.849 590.735 326.614 595.408 326.576C596.755 326.576 597.219 326.086 597.197 325.374C597.008 325.805 596.496 326.075 595.489 326.086Z" fill="black"/>
<g opacity="0.1">
<path opacity="0.1" d="M94.3042 218.799C94.3042 218.74 94.3042 218.686 94.3042 218.626C94.3515 218.671 94.3931 218.722 94.4281 218.777C94.5478 219.045 94.6032 219.336 94.5898 219.629V219.731C94.4378 219.441 94.341 219.125 94.3042 218.799Z" fill="black"/>
<path opacity="0.1" d="M87.7028 242.08C88.0839 242.557 88.5956 242.913 89.1755 243.104C89.7553 243.296 90.3784 243.314 90.9686 243.158C91.0972 243.121 91.2178 243.061 91.3243 242.98C91.4245 242.884 91.5066 242.771 91.5668 242.646C92.1704 241.471 91.971 239.913 92.8818 238.96C93.3874 238.563 93.9126 238.193 94.4554 237.849C95.6518 236.82 95.6518 234.993 95.4416 233.43C95.1667 231.377 94.7248 229.151 95.711 227.324C96.2985 226.247 97.3817 225.309 97.4086 224.064C97.4195 223.949 97.4195 223.834 97.4086 223.719C97.6073 224.079 97.7094 224.483 97.705 224.894C97.6781 226.139 96.5949 227.05 96.0075 228.154C95.0212 229.981 95.4685 232.202 95.738 234.26C95.9482 235.823 95.9482 237.65 94.7518 238.674C94.2668 239.094 93.6255 239.326 93.1782 239.79C92.2674 240.743 92.4668 242.301 91.8632 243.47C91.8053 243.598 91.7229 243.714 91.6207 243.81C91.5146 243.888 91.3962 243.948 91.2704 243.988C90.6794 244.145 90.0552 244.127 89.4743 243.936C88.8933 243.745 88.3807 243.388 87.9992 242.91C87.55 242.352 87.2331 241.7 87.0723 241.002C87.2296 241.39 87.442 241.753 87.7028 242.08Z" fill="black"/>
</g>
<g opacity="0.1">
<path opacity="0.1" d="M93.8148 233.236C93.2947 233.973 92.9722 234.832 92.8778 235.729C92.7835 236.626 92.9205 237.532 93.2759 238.361C92.7781 237.487 92.5396 236.489 92.5882 235.484C92.6369 234.479 92.9708 233.509 93.5507 232.687C93.7687 232.453 93.9503 232.188 94.0897 231.9C94.2001 231.599 94.2001 231.268 94.0897 230.968C94.2533 231.173 94.3643 231.416 94.4132 231.674C94.462 231.932 94.4471 232.198 94.3699 232.45C94.2229 232.737 94.036 233.002 93.8148 233.236Z" fill="black"/>
<path opacity="0.1" d="M92.1387 241.519C92.6462 241.472 93.1459 241.362 93.6261 241.191C94.0626 241.029 94.5476 240.722 94.553 240.258C94.556 240.233 94.556 240.208 94.553 240.183C94.7222 240.349 94.8239 240.572 94.8386 240.808C94.8386 241.277 94.3536 241.584 93.9117 241.74C93.3418 241.947 92.7441 242.067 92.1387 242.096C92.2086 241.91 92.2086 241.705 92.1387 241.519Z" fill="black"/>
<path opacity="0.1" d="M89.7348 239.466C91.2168 240.005 91.8312 240.598 91.8905 241.126C91.3536 240.617 90.7062 240.239 89.9989 240.021C89.548 239.881 89.1342 239.641 88.7874 239.32C88.4406 239 88.1696 238.606 87.9941 238.167C88.4174 238.778 89.0286 239.234 89.7348 239.466Z" fill="black"/>
</g>
<path d="M485.69 52.889C485.69 52.889 470.87 40.5963 497.902 20.829C497.902 20.829 511.321 46.4921 493.343 55.1793C493.343 55.1793 493.682 42.5095 492.017 42.531C490.352 42.5526 485.69 52.889 485.69 52.889Z" fill="#3A924D"/>
<path d="M463.013 65.3864C463.013 65.3864 436.849 67.8061 443.892 22.6505C443.892 22.6505 481.616 34.5066 472.611 60.2236C472.611 60.2236 460.723 47.6615 459.138 49.289C457.554 50.9165 463.013 65.3864 463.013 65.3864Z" fill="#3A924D"/>
<path d="M338.723 123.136C338.723 123.136 312.844 127.69 316.202 82.0981C316.202 82.0981 354.75 90.8392 347.885 117.208C347.885 117.208 335.015 105.659 333.566 107.411C332.116 109.162 338.723 123.136 338.723 123.136Z" fill="#3A924D"/>
<path d="M532.97 63.5595C532.97 63.5595 557.862 71.9665 561.451 26.4068C561.451 26.4068 522.03 29.2145 524.805 56.3165C524.805 56.3165 539.275 46.8477 540.433 48.7986C541.592 50.7495 532.97 63.5595 532.97 63.5595Z" fill="#3A924D"/>
<path d="M401.647 76.8976C401.647 76.8976 376.819 68.3073 401.863 30.0821C401.863 30.0821 431.325 56.4296 412.522 76.1539C412.522 76.1539 406.88 59.8086 404.762 60.6385C402.644 61.4685 401.647 76.8976 401.647 76.8976Z" fill="#3A924D"/>
<path d="M491.726 63.5594C491.726 63.5594 490.26 49.5854 514.452 53.056C514.452 53.056 508.362 73.2922 494.555 68.6576C494.555 68.6576 501.189 62.2176 500.311 61.3822C499.433 60.5469 491.726 63.5594 491.726 63.5594Z" fill="#3A924D"/>
<path d="M467.217 92.526C467.217 92.526 465.745 78.552 489.937 82.0226C489.937 82.0226 483.853 102.259 470.04 97.6511C470.04 97.6511 476.674 91.1841 475.796 90.3758C474.918 89.5674 467.217 92.526 467.217 92.526Z" fill="#3A924D"/>
<path d="M518.478 98.675C518.478 98.675 507.867 89.4704 527.903 75.5018C527.903 75.5018 537.275 94.4446 524.023 100.486C524.023 100.486 524.476 91.2542 523.258 91.2434C522.04 91.2326 518.478 98.675 518.478 98.675Z" fill="#3A924D"/>
<path d="M475.683 177.809C475.683 177.809 488.811 172.803 491.672 197.07C491.672 197.07 470.552 196.385 471.479 181.851C471.479 181.851 479.407 186.61 479.994 185.543C480.582 184.475 475.683 177.809 475.683 177.809Z" fill="#3A924D"/>
<path d="M476.717 153.229C476.717 153.229 466.106 144.025 486.148 130.056C486.148 130.056 495.52 148.999 482.263 155.045C482.263 155.045 482.715 145.808 481.503 145.798C480.29 145.787 476.717 153.229 476.717 153.229Z" fill="#3A924D"/>
<path d="M395.083 127.087C395.083 127.087 382.348 133.015 377.773 109.006C377.773 109.006 398.893 108.192 398.99 122.759C398.99 122.759 390.745 118.572 390.238 119.677C389.731 120.781 395.083 127.087 395.083 127.087Z" fill="#3A924D"/>
<path d="M364.284 98.5888C364.284 98.5888 351.544 104.517 346.974 80.5083C346.974 80.5083 368.094 79.6945 368.191 94.2667C368.191 94.2667 359.945 90.0794 359.439 91.1841C358.932 92.2889 364.284 98.5888 364.284 98.5888Z" fill="#3A924D"/>
<path d="M407.149 164.735C407.149 164.735 393.137 165.274 398.219 141.352C398.219 141.352 417.992 148.805 412.43 162.267C412.43 162.267 406.459 155.207 405.559 156.026C404.659 156.845 407.149 164.735 407.149 164.735Z" fill="#3A924D"/>
<path d="M404.665 181.7C404.665 181.7 407.16 195.523 382.779 193.853C382.779 193.853 387.355 173.218 401.469 176.823C401.469 176.823 395.325 183.732 396.268 184.502C397.211 185.273 404.665 181.7 404.665 181.7Z" fill="#3A924D"/>
<path d="M371.963 170.997C371.963 170.997 366.644 184.001 346.974 169.494C346.974 169.494 361.918 154.55 371.888 165.182C371.888 165.182 362.996 167.71 363.373 168.863C363.75 170.016 371.963 170.997 371.963 170.997Z" fill="#3A924D"/>
<path d="M482.618 120.038C482.618 120.038 467.798 107.75 494.83 87.9776C494.83 87.9776 508.249 113.646 490.271 122.333C490.271 122.333 490.61 109.663 488.945 109.685C487.28 109.707 482.618 120.038 482.618 120.038Z" fill="#3A924D"/>
<path d="M543.829 94.6817C543.829 94.6817 532.996 78.7622 564.453 67.2672C564.453 67.2672 570.224 95.6517 550.543 99.0092C550.543 99.0092 554.38 86.9321 552.774 86.4902C551.169 86.0483 543.829 94.6817 543.829 94.6817Z" fill="#3A924D"/>
<path d="M542.136 144.752C542.136 144.752 527.316 132.465 554.348 112.692C554.348 112.692 567.767 138.355 549.788 147.043C549.788 147.043 550.128 134.378 548.463 134.4C546.798 134.421 542.136 144.752 542.136 144.752Z" fill="#3A924D"/>
<path d="M515.67 168.696C515.67 168.696 521.555 150.373 549.967 168.092C549.967 168.092 531.143 190.102 516.393 176.65C516.393 176.65 528.249 172.248 527.634 170.722C527.02 169.197 515.67 168.696 515.67 168.696Z" fill="#3A924D"/>
<path d="M553.637 155.374C553.637 155.374 559.522 137.051 587.933 154.771C587.933 154.771 569.109 176.78 554.354 163.328C554.354 163.328 566.21 158.926 565.601 157.4C564.992 155.875 553.637 155.374 553.637 155.374Z" fill="#3A924D"/>
<path d="M431.874 85.9782C431.874 85.9782 412.921 82.5885 426.695 52.0644C426.695 52.0644 451.022 67.7845 439.662 84.1998C439.662 84.1998 433.734 73.012 432.273 73.8527C430.813 74.6934 431.874 85.9782 431.874 85.9782Z" fill="#3A924D"/>
<path d="M386.8 93.0757C386.8 93.0757 367.744 95.8942 371.118 62.5625C371.118 62.5625 399.179 69.7462 393.617 88.9207C393.617 88.9207 384.423 80.2011 383.324 81.4514C382.225 82.7017 386.8 93.0757 386.8 93.0757Z" fill="#3A924D"/>
<path d="M374.981 142.478C374.981 142.478 355.931 145.28 359.304 111.959C359.304 111.959 387.365 119.143 381.804 138.318C381.804 138.318 372.61 129.598 371.511 130.848C370.411 132.098 374.981 142.478 374.981 142.478Z" fill="#3A924D"/>
<path d="M354.815 157.481C354.815 157.481 338.384 167.51 328.457 135.526C328.457 135.526 357.089 131.161 359.471 150.987C359.471 150.987 347.615 146.558 347.076 148.137C346.538 149.716 354.815 157.481 354.815 157.481Z" fill="#3A924D"/>
<path d="M509.187 142.133C509.187 142.133 494.361 129.84 521.393 110.073C521.393 110.073 534.812 135.736 516.839 144.423C516.839 144.423 517.173 131.754 515.508 131.775C513.843 131.797 509.187 142.133 509.187 142.133Z" fill="#3A924D"/>
<path d="M404.045 324.663C404.045 324.663 439.344 323.176 443.063 254.065C446.781 184.955 409.989 173.228 409.989 173.228C409.989 173.228 398.333 166.718 393.165 166.449C387.996 166.179 370.724 167.807 370.724 167.807L389.769 164.137C389.769 164.137 362.975 153.935 354.95 153.116L383.917 159.238C383.917 159.238 384.326 143.189 377.391 137.886C377.391 137.886 383.319 137.444 386.455 149.004C387.347 152.339 389.008 155.419 391.304 157.996C393.601 160.574 396.469 162.577 399.68 163.846C410.426 168.039 425.278 174.651 428.663 180.32C428.663 180.32 434.92 186.847 433.971 169.849C433.023 152.852 428.528 138.291 426.895 137.881C426.895 137.881 414.112 124.284 396.177 123.47C396.177 123.47 406.648 119.251 424.33 132.443C424.33 132.443 425.823 125.782 419.162 117.893C412.501 110.003 402.159 93.4099 390.869 91.6422C390.869 91.6422 406.648 90.6883 419.162 111.092C419.162 111.092 423.786 114.083 424.195 106.468C424.605 98.8529 427.321 89.3303 427.321 89.3303C427.321 89.3303 431.131 106.877 423.107 114.762C423.107 114.762 438.471 134.755 437.792 157.201C437.792 157.201 442.556 167.397 444.324 155.428C444.324 155.428 445.348 138.948 447.39 124.963C448.218 119.329 447.874 113.585 446.38 108.09C444.886 102.595 442.274 97.4668 438.708 93.0272C435.308 88.7968 432.942 84.6849 434.257 82.5292L452.073 103.746C452.073 103.746 467.033 69.0671 477.941 61.587C488.849 54.1069 490.185 52.474 490.185 52.474L472.638 73.012L494.674 65.257L472.573 75.4694C472.573 75.4694 462.372 83.7633 456.525 106.479C450.677 129.194 450.133 143.319 450.133 143.319C450.133 143.319 481.552 118.432 487.534 119.245L467.2 134.642C461.671 138.825 457.104 144.145 453.808 150.244C450.511 156.343 448.561 163.078 448.091 169.995C448.091 169.995 487.399 159.928 496.922 158.026L514.873 139.665L501.271 157.072L529.294 156.668L545.343 145.243C545.343 145.243 532.695 155.848 533.918 156.527C535.141 157.206 553.642 158.026 553.642 158.026C553.642 158.026 506.579 157.751 501.411 161.151C496.242 164.552 484.704 165.775 484.704 165.775L518.025 170.809L478.313 167.952C478.313 167.952 448.236 173.395 446.619 182.778C446.619 182.778 452.741 198.751 456.821 205.083C460.205 210.349 467.017 227.389 468.381 242.349C469.744 257.31 471.614 280.294 466.473 294.306C461.332 308.318 459.402 316.337 461.989 320.556C464.576 324.776 467.017 330.214 458.589 331.297C450.16 332.38 413.158 330.758 413.158 330.758C413.158 330.758 401.846 332.984 404.045 324.663Z" fill="#B77B7F"/>
<path opacity="0.1" d="M423.796 317.242C427.496 315.37 431.734 314.85 435.776 315.771C442.707 317.269 453.313 316.472 454.283 316.31" fill="black"/>
<path opacity="0.1" d="M445.951 235.796C445.951 235.796 447.637 262.381 444.641 267.624L445.951 235.796Z" fill="black"/>
<path opacity="0.1" d="M452.17 267.624C452.17 267.624 450.015 292.528 448.516 297.394C447.018 302.26 452.17 267.624 452.17 267.624Z" fill="black"/>
<path opacity="0.1" d="M454.282 206.404C455.807 206.943 462.366 220.259 461.051 224.188C459.736 228.117 454.282 206.404 454.282 206.404Z" fill="black"/>
<path opacity="0.1" d="M437.663 192.602C438.374 192.926 441.435 200.584 440.815 202.842C440.195 205.1 437.663 192.602 437.663 192.602Z" fill="black"/>
<path opacity="0.1" d="M466.02 237.251C465.265 244.968 464.856 250.023 465.335 256.205C465.742 261.005 465.673 265.834 465.13 270.621" fill="black"/>
<path opacity="0.1" d="M383.987 147.355C384.845 148.476 385.295 149.856 385.264 151.268C385.307 152.669 385.129 154.07 385.221 155.466C385.313 156.862 386.013 158.662 387.474 158.861" fill="black"/>
<path opacity="0.1" d="M409.1 101.327C410.961 103.177 412.613 105.226 414.026 107.438C414.435 108.138 414.902 108.803 415.422 109.426C416.262 110.231 417.163 110.969 418.116 111.636C420.242 113.362 421.754 115.729 422.427 118.383" fill="black"/>
<path opacity="0.1" d="M480.199 61.587C479.75 62.4563 479.16 63.2449 478.452 63.9205C477.838 64.5079 477.132 64.9983 476.577 65.645C476.131 66.2049 475.727 66.7976 475.37 67.4181C473.873 69.683 472.187 71.8175 470.331 73.7988" fill="black"/>
<path opacity="0.1" d="M447.271 100.933C448.446 101.666 448.753 103.234 448.727 104.614C448.7 105.993 448.462 107.432 448.98 108.715C449.212 109.302 449.589 109.793 449.837 110.396C450.191 111.422 450.327 112.511 450.236 113.592C450.236 114.842 450.2 116.1 450.128 117.365C450.063 118.868 449.918 120.506 448.894 121.611" fill="black"/>
<path opacity="0.1" d="M448.236 175.465C449.009 174.829 449.831 174.256 450.694 173.751C451.485 173.27 452.337 172.897 453.227 172.641C454.579 172.28 456.007 172.334 457.403 172.188C458.799 172.043 460.259 171.649 461.213 170.625" fill="black"/>
<path opacity="0.1" d="M503.545 158.279C501.89 158.327 500.171 158.387 498.694 159.141C497.945 159.529 497.293 160.084 496.539 160.494C495.583 161.022 494.51 161.302 493.418 161.308" fill="black"/>
<path opacity="0.1" d="M480.603 165.107C480.801 165.001 481.03 164.972 481.249 165.023C481.467 165.075 481.659 165.204 481.789 165.387C482.085 165.721 482.247 166.163 482.554 166.492C483.157 167.149 484.171 167.219 485.033 167.252" fill="black"/>
<path opacity="0.1" d="M471.14 129.959L469.523 130.789C467.87 131.587 466.3 132.546 464.834 133.651" fill="black"/>
<path opacity="0.1" d="M452.967 145.507C451.922 145.259 451.022 146.374 450.812 147.431C450.602 148.487 450.844 149.586 450.542 150.637C450.217 151.535 449.679 152.341 448.974 152.987" fill="black"/>
<path opacity="0.1" d="M435.302 147.447C434.348 150.287 436.38 153.375 435.776 156.323C435.598 157.217 435.183 158.053 434.973 158.936C434.434 161.275 435.367 163.76 436.897 165.613" fill="black"/>
<path d="M232.223 416.796C232.482 416.796 232.692 416.586 232.692 416.327C232.692 416.068 232.482 415.858 232.223 415.858C231.964 415.858 231.754 416.068 231.754 416.327C231.754 416.586 231.964 416.796 232.223 416.796Z" fill="#E8F5FF"/>
<path d="M236.863 419.086C237.122 419.086 237.332 418.876 237.332 418.617C237.332 418.358 237.122 418.148 236.863 418.148C236.604 418.148 236.395 418.358 236.395 418.617C236.395 418.876 236.604 419.086 236.863 419.086Z" fill="#E8F5FF"/>
<path d="M241.897 419.846C242.156 419.846 242.365 419.636 242.365 419.377C242.365 419.118 242.156 418.908 241.897 418.908C241.638 418.908 241.428 419.118 241.428 419.377C241.428 419.636 241.638 419.846 241.897 419.846Z" fill="#E8F5FF"/>
<path d="M244.494 419.846C244.753 419.846 244.963 419.636 244.963 419.377C244.963 419.118 244.753 418.908 244.494 418.908C244.235 418.908 244.025 419.118 244.025 419.377C244.025 419.636 244.235 419.846 244.494 419.846Z" fill="#E8F5FF"/>
<path d="M247.124 419.549C247.383 419.549 247.593 419.34 247.593 419.081C247.593 418.822 247.383 418.612 247.124 418.612C246.865 418.612 246.655 418.822 246.655 419.081C246.655 419.34 246.865 419.549 247.124 419.549Z" fill="#E8F5FF"/>
<path opacity="0.1" d="M197.986 330.51C197.986 330.51 203.811 331.049 204.846 330.747L197.986 330.51Z" fill="black"/>
<g opacity="0.1">
<path opacity="0.1" d="M353.42 210.063C353.334 209.761 353.231 209.465 353.129 209.168C353.215 209.47 353.318 209.767 353.42 210.063Z" fill="black"/>
<path opacity="0.1" d="M376.738 203.37C376.762 203.611 376.751 203.854 376.706 204.092C376.496 205.17 375.698 206.016 375.089 206.878C373.632 208.905 372.851 211.339 372.858 213.835C372.858 215.722 373.338 217.608 373.117 219.483C372.896 221.359 371.683 223.342 369.808 223.557C369.113 223.638 368.31 223.509 367.819 224.005C367.627 224.228 367.495 224.497 367.437 224.786C366.898 226.861 367.614 229.033 367.738 231.172C367.882 233.829 367.105 236.453 365.54 238.604C364.915 239.486 364.106 240.222 363.168 240.76C361.703 241.552 359.935 241.622 358.318 241.568C353.878 241.412 349.157 240.275 346.193 236.987C346.111 237.181 346.085 237.394 346.117 237.602C346.193 237.889 346.344 238.151 346.554 238.361C349.507 241.773 354.314 242.948 358.83 243.098C360.49 243.158 362.231 243.098 363.68 242.295C364.623 241.751 365.434 241.006 366.057 240.113C367.622 237.964 368.399 235.341 368.256 232.687C368.132 230.531 367.415 228.375 367.954 226.301C368.012 226.012 368.144 225.742 368.337 225.519C368.822 225.018 369.63 225.153 370.32 225.072C372.201 224.851 373.408 222.873 373.634 220.998C373.86 219.122 373.386 217.225 373.375 215.344C373.369 212.85 374.15 210.417 375.607 208.392C376.232 207.53 377.029 206.684 377.223 205.606C377.346 204.826 377.173 204.029 376.738 203.37Z" fill="black"/>
</g>
</g>
<defs>
<clipPath id="clip0">
<rect width="602.225" height="444" fill="white"/>
</clipPath>
</defs>
</svg>
